<?xml version="1.0" encoding="UTF-8" standalone="no"?>
<svg
   xmlns:dc="http://purl.org/dc/elements/1.1/"
   xmlns:cc="http://creativecommons.org/ns#"
   xmlns:rdf="http://www.w3.org/1999/02/22-rdf-syntax-ns#"
   xmlns:svg="http://www.w3.org/2000/svg"
   xmlns="http://www.w3.org/2000/svg"
   xmlns:sodipodi="http://sodipodi.sourceforge.net/DTD/sodipodi-0.dtd"
   xmlns:inkscape="http://www.inkscape.org/namespaces/inkscape"
   width="55.132004mm"
   height="26.836065mm"
   viewBox="0 0 55.132003 26.836066"
   version="1.1"
   id="svg8"
   inkscape:version="1.0.2 (e86c870879, 2021-01-15, custom)"
   sodipodi:docname="LogoVision.svg"
   inkscape:export-filename="C:\Users\cosme\cosmefc@gmail.com\MyVision\Identidade\LogoVision.png"
   inkscape:export-xdpi="229.99646"
   inkscape:export-ydpi="229.99646">
  <defs
     id="defs2" />
  <sodipodi:namedview
     id="base"
     pagecolor="#ffffff"
     bordercolor="#666666"
     borderopacity="1.0"
     inkscape:pageopacity="0.0"
     inkscape:pageshadow="2"
     inkscape:zoom="3.2057908"
     inkscape:cx="103.39592"
     inkscape:cy="81.38247"
     inkscape:document-units="mm"
     inkscape:current-layer="layer1"
     inkscape:document-rotation="0"
     showgrid="false"
     inkscape:window-width="1920"
     inkscape:window-height="1057"
     inkscape:window-x="-8"
     inkscape:window-y="-8"
     inkscape:window-maximized="1"
     fit-margin-top="0"
     fit-margin-left="0"
     fit-margin-right="0"
     fit-margin-bottom="0" />
  <metadata
     id="metadata5">
    <rdf:RDF>
      <cc:Work
         rdf:about="">
        <dc:format>image/svg+xml</dc:format>
        <dc:type
           rdf:resource="http://purl.org/dc/dcmitype/StillImage" />
        <dc:title />
      </cc:Work>
    </rdf:RDF>
  </metadata>
  <g
     inkscape:label="Layer 1"
     inkscape:groupmode="layer"
     id="layer1"
     transform="translate(-55.565648,-23.605046)">
    <g
       aria-label="VISION"
       id="text835"
       style="font-style:normal;font-variant:normal;font-weight:normal;font-stretch:normal;font-size:14.1111px;line-height:1.25;font-family:'Sans Forgetica';-inkscape-font-specification:'Sans Forgetica';fill:#4169e1;fill-opacity:1;stroke:none;stroke-width:0.264583">
      <path
         id="path905"
         style="font-style:normal;font-variant:normal;font-weight:normal;font-stretch:normal;font-size:14.1111px;font-family:'Sans Forgetica';-inkscape-font-specification:'Sans Forgetica';text-align:center;text-anchor:middle;fill:#4169e1;fill-opacity:1;stroke-width:0.264583"
         d="m 108.80674,34.470654 1.89089,-0.02822 c -0.0282,-0.01411 -0.0988,-0.09878 -0.11289,-0.225777 L 109.1313,23.929662 c -0.0141,-0.09878 -0.0282,-0.141111 0,-0.183445 l -1.91911,0.08467 c 0.0423,0.04233 0.11289,0.112889 0.127,0.211666 z m -6.3641,0.01411 1.905,-0.04233 c -0.0282,-0.01411 -0.0988,-0.09878 -0.11289,-0.225777 l -1.00189,-6.956773 1.96144,2.709332 h 2.14489 l -4.67078,-6.180662 -1.80622,0.02822 c 0.0564,0.04233 0.11289,0.127 0.127,0.225777 l 1.45345,10.286993 c 0.0141,0.126999 0.0564,0.141111 0,0.155222 z m -6.011319,-0.01411 c 2.483554,-0.635 3.570109,-2.920998 3.217331,-5.432774 -0.324555,-2.342443 -2.031998,-4.571997 -4.628441,-5.249329 l 0.169334,1.848554 c 1.439332,0.634999 2.384776,2.116665 2.596442,3.59833 0.225778,1.552221 -0.254,2.892776 -1.509888,3.471331 z m -3.033886,0.04233 -0.169333,-1.820332 c -1.453444,-0.564444 -2.469443,-2.003776 -2.709331,-3.654775 -0.197556,-1.41111 0.324555,-2.836331 1.622776,-3.471331 l -0.169333,-1.763887 c -2.441221,0.64911 -3.654775,2.991553 -3.316109,5.432773 0.352778,2.441221 2.031999,4.642552 4.74133,5.277552 z m -9.553191,-7.676436 h 1.806221 l -0.183444,-1.382887 h 1.439332 c 0.09878,0 0.183444,0.05644 0.225777,0.09878 l -0.211666,-1.763887 c 0,0.04233 -0.07056,0 -0.155222,0 h -4.797774 c -0.127,0 -0.211667,-0.04233 -0.225778,-0.07056 l 0.211667,1.763888 c 0,-0.05645 0.02822,-0.02822 0.155222,-0.02822 H 83.6608 Z m -0.620888,7.662328 c 0,-0.05645 0.02822,-0.02822 0.155222,-0.02822 h 4.797774 c 0.09878,0 0.183444,0.05644 0.225777,0.09878 l -0.211666,-1.763887 c -0.01411,0.04233 -0.07056,0 -0.155222,0 h -1.53811 L 86.10202,29.969213 h -1.806221 l 0.395111,2.836331 h -1.453443 c -0.127,0 -0.211667,-0.04233 -0.225778,-0.07056 z m -7.47886,-5.136441 -0.352778,-2.765775 c -0.141111,-1.016 0.846666,-1.326444 1.947332,-1.326444 1.15711,0 2.314221,0.508 2.850442,1.086555 l -0.211666,-1.947332 c -0.338667,-0.296333 -1.354666,-0.804333 -2.681109,-0.804333 -2.582331,0 -4.035775,1.255888 -3.739442,3.358442 0.169334,1.255888 1.086555,1.961443 2.187221,2.398887 z m 4.48733,4.882441 c 1.100666,-0.493889 1.693332,-1.523999 1.481665,-3.062109 -0.239888,-1.721554 -1.382888,-2.356554 -2.977442,-2.808109 l 0.183444,1.91911 c 0.550333,0.268111 0.889,0.64911 0.973666,1.185332 z m -2.991554,0.395111 -0.141111,-1.693332 c -1.41111,-0.211667 -2.610553,-0.987777 -2.977442,-1.53811 l 0.268111,2.257776 c 0.310444,0.239889 1.227666,0.818444 2.850442,0.973666 z m -8.325527,-7.803439 h 1.806221 l -0.183444,-1.382887 h 1.439332 c 0.09878,0 0.183444,0.05644 0.225778,0.09878 l -0.211667,-1.763887 c 0,0.04233 -0.07055,0 -0.155222,0 h -4.797774 c -0.127,0 -0.211666,-0.04233 -0.225777,-0.07056 l 0.211666,1.763888 c 0,-0.05645 0.02822,-0.02822 0.155222,-0.02822 h 1.552221 z m -0.620888,7.662328 c 0,-0.05645 0.02822,-0.02822 0.155222,-0.02822 h 4.797774 c 0.09878,0 0.183444,0.05644 0.225778,0.09878 l -0.211667,-1.763887 c -0.01411,0.04233 -0.07055,0 -0.155222,0 h -1.53811 l -0.395111,-2.836331 h -1.80622 l 0.39511,2.836331 h -1.453443 c -0.127,0 -0.211666,-0.04233 -0.225777,-0.07056 z m -4.134529,-4.332108 1.368777,-6.222995 c 0.02822,-0.08467 0.05644,-0.155222 0.112888,-0.183445 l -1.975554,0.02822 -0.874888,3.739441 z m -3.033887,4.317997 2.130777,-0.04233 c -0.02822,-0.01411 -0.127,-0.112888 -0.183445,-0.211666 L 57.64,23.788551 l -2.074332,0.02822 c 0.07055,0.02822 0.155222,0.127 0.183444,0.211666 l 5.263441,10.286992 c 0.07056,0.09878 0.155222,0.155223 0.112888,0.169334 z m -5.559793,-10.879719 55.132002,11.035 H 55.565653 Z" />
    </g>
    <g
       aria-label="Propaganda e Marketing"
       id="text835-3"
       style="font-style:normal;font-variant:normal;font-weight:normal;font-stretch:normal;font-size:7.40833px;line-height:1.05;font-family:'Sans Forgetica';-inkscape-font-specification:'Sans Forgetica';fill:#4169e1;fill-opacity:1;stroke:none;stroke-width:0.264583">
      <path
         d="m 60.291801,40.973267 1.000124,-0.02222 c -0.01482,-0.0074 -0.05186,-0.05186 -0.05927,-0.118533 l -0.214842,-1.363133 c 0.148167,0.0074 0.333375,0.0074 0.4445,0.0074 1.111249,0 2.133599,-0.763058 1.933574,-2.155824 -0.192617,-1.400174 -1.422399,-2.059516 -2.622549,-2.059516 -0.481541,0 -1.133474,0.08149 -1.237191,0.103717 l 0.07408,0.866775 c 0.281517,-0.03704 0.807508,-0.07408 1.259416,-0.07408 0.696384,0 1.503891,0.392642 1.622425,1.252008 0.13335,0.940858 -0.525992,1.20015 -1.592791,1.20015 -0.422275,0 -0.726017,-0.02223 -0.911225,-0.04445 l 0.303742,2.326215 c 0.0074,0.05927 0.02963,0.07408 0,0.08149 z"
         style="font-style:normal;font-variant:normal;font-weight:normal;font-stretch:normal;font-size:7.40833px;font-family:'Sans Forgetica';-inkscape-font-specification:'Sans Forgetica';text-align:center;text-anchor:middle;fill:#4169e1;fill-opacity:1;stroke-width:0.264583"
         id="path908" />
      <path
         d="m 64.647891,39.365659 h 0.911224 L 65.40354,38.306268 c 0.118534,-0.385233 0.348192,-0.637116 0.733425,-0.637116 0.22225,0 0.370416,0.111125 0.459316,0.214841 l 0.140759,-0.896408 c -0.13335,-0.08149 -0.303742,-0.125941 -0.466725,-0.125941 -0.548217,0 -0.829733,0.251883 -0.970491,0.563033 l -0.08149,-0.466725 h -0.911225 z"
         style="font-style:normal;font-variant:normal;font-weight:normal;font-stretch:normal;font-size:7.40833px;font-family:'Sans Forgetica';-inkscape-font-specification:'Sans Forgetica';text-align:center;text-anchor:middle;fill:#4169e1;fill-opacity:1;stroke-width:0.264583"
         id="path910" />
      <path
         d="m 70.485636,40.995492 c 0.977899,-0.229658 1.489074,-1.089025 1.348316,-2.096558 -0.125942,-0.918633 -0.851958,-1.72614 -1.874308,-1.978024 l 0.07408,0.874183 c 0.474134,0.22225 0.822325,0.696383 0.896408,1.222375 0.07408,0.503766 -0.09631,0.940858 -0.518583,1.140882 z m -1.20015,0.01482 -0.07408,-0.874182 c -0.474133,-0.207434 -0.814916,-0.66675 -0.896408,-1.222375 -0.06667,-0.481541 0.111125,-0.918633 0.518583,-1.140883 l -0.07408,-0.829733 c -0.940858,0.251884 -1.474258,1.11125 -1.340908,2.074333 0.140758,0.970491 0.829733,1.763182 1.866899,1.99284 z"
         style="font-style:normal;font-variant:normal;font-weight:normal;font-stretch:normal;font-size:7.40833px;font-family:'Sans Forgetica';-inkscape-font-specification:'Sans Forgetica';text-align:center;text-anchor:middle;fill:#4169e1;fill-opacity:1;stroke-width:0.264583"
         id="path912" />
      <path
         d="m 73.167447,42.566058 h 0.918633 l -0.600075,-4.200523 c 0.0889,-0.31115 0.414866,-0.740833 0.963083,-0.740833 0.740833,0 1.266824,0.540808 1.385357,1.348316 0.07408,0.577849 -0.125941,1.252007 -0.844549,1.326091 l 0.05927,0.770466 c 1.163107,-0.02222 1.85949,-0.940858 1.674282,-2.215091 -0.155575,-1.103841 -0.926041,-1.99284 -2.103966,-1.99284 -0.622299,0 -1.044574,0.355599 -1.237191,0.688974 l -0.09631,-0.592666 h -0.911225 z"
         style="font-style:normal;font-variant:normal;font-weight:normal;font-stretch:normal;font-size:7.40833px;font-family:'Sans Forgetica';-inkscape-font-specification:'Sans Forgetica';text-align:center;text-anchor:middle;fill:#4169e1;fill-opacity:1;stroke-width:0.264583"
         id="path914" />
      <path
         d="m 79.568239,41.054758 -0.05927,-0.748241 c -0.637116,-0.08149 -1.177924,-0.688975 -1.281641,-1.407583 -0.111125,-0.777874 0.325967,-1.303866 0.992716,-1.303866 0.570442,0 0.985308,0.348192 1.170516,0.66675 l 0.318559,2.252132 c 0.148166,0.407458 0.585258,0.540808 0.851958,0.540808 0.414866,0 0.666749,-0.1778 0.755649,-0.377824 L 82.03521,40.225025 c -0.02222,0.04445 -0.08149,0.05927 -0.148167,0.05927 -0.214841,0 -0.318558,-0.207433 -0.370416,-0.540808 l -0.40005,-2.785532 h -0.889 l 0.06668,0.481541 c -0.155575,-0.22225 -0.600075,-0.577849 -1.207558,-0.577849 -1.148291,0 -1.918757,0.911224 -1.748365,2.12619 0.155574,1.126067 1.118657,2.037291 2.229907,2.066924 z"
         style="font-style:normal;font-variant:normal;font-weight:normal;font-stretch:normal;font-size:7.40833px;font-family:'Sans Forgetica';-inkscape-font-specification:'Sans Forgetica';text-align:center;text-anchor:middle;fill:#4169e1;fill-opacity:1;stroke-width:0.264583"
         id="path916" />
      <path
         d="m 85.005951,39.587909 c 0.800099,-0.13335 1.214966,-0.681566 1.118658,-1.385358 -0.02963,-0.200025 -0.125942,-0.414866 -0.251884,-0.533399 0.08149,-0.103717 0.244475,-0.148167 0.459317,-0.148167 l -0.04445,-0.659341 c -0.414867,0 -0.66675,0.1778 -0.8001,0.355599 -0.22225,-0.170391 -0.474133,-0.281516 -0.814916,-0.333374 l 0.05927,0.755649 c 0.296333,0.103717 0.525991,0.3556 0.570441,0.66675 0.03704,0.259292 -0.07408,0.451908 -0.348191,0.555625 z m -2.155824,0.31115 c 0.08149,0.555625 0.888999,0.955675 1.866899,0.896408 0.518583,-0.02963 0.866775,0.05927 1.066799,0.185208 l 1.044575,-0.03704 c -0.237067,-0.555624 -0.829733,-0.896407 -1.837266,-0.851957 -0.807508,0.02963 -1.318683,-0.125942 -1.363133,-0.437092 -0.0074,-0.09631 0.02963,-0.200025 0.06668,-0.22225 0.13335,0.07408 0.303742,0.125942 0.511175,0.162983 l -0.05927,-0.748241 c -0.296334,-0.111125 -0.525992,-0.348191 -0.570442,-0.644525 -0.03704,-0.266699 0.09631,-0.466724 0.3556,-0.570441 l -0.05927,-0.726016 c -0.726016,0.140758 -1.237191,0.681566 -1.133474,1.400174 0.05927,0.437091 0.325966,0.703791 0.496358,0.829733 -0.162983,0.06667 -0.437092,0.363008 -0.385233,0.763058 z m 0.170391,1.444624 c 0.111125,0.807508 0.859367,1.318683 2.141008,1.318683 0.881591,0 1.511299,-0.296333 1.703916,-0.814916 l -1.748366,0.02222 c -0.807508,0 -1.192741,-0.281517 -1.252008,-0.518583 l -0.837141,-0.244475 c -0.01482,0.06667 -0.02223,0.148166 -0.0074,0.237066 z"
         style="font-style:normal;font-variant:normal;font-weight:normal;font-stretch:normal;font-size:7.40833px;font-family:'Sans Forgetica';-inkscape-font-specification:'Sans Forgetica';text-align:center;text-anchor:middle;fill:#4169e1;fill-opacity:1;stroke-width:0.264583"
         id="path918" />
      <path
         d="m 89.458353,41.054758 -0.05927,-0.748241 c -0.637116,-0.08149 -1.177924,-0.688975 -1.281641,-1.407583 -0.111125,-0.777874 0.325966,-1.303866 0.992716,-1.303866 0.570442,0 0.985308,0.348192 1.170516,0.66675 l 0.318558,2.252132 c 0.148167,0.407458 0.585259,0.540808 0.851958,0.540808 0.414867,0 0.66675,-0.1778 0.75565,-0.377824 l -0.281516,-0.451909 c -0.02222,0.04445 -0.08149,0.05927 -0.148167,0.05927 -0.214842,0 -0.318558,-0.207433 -0.370417,-0.540808 l -0.400049,-2.785532 h -0.889 l 0.06668,0.481541 c -0.155575,-0.22225 -0.600075,-0.577849 -1.207558,-0.577849 -1.148291,0 -1.918757,0.911224 -1.748366,2.12619 0.155575,1.126067 1.118658,2.037291 2.229908,2.066924 z"
         style="font-style:normal;font-variant:normal;font-weight:normal;font-stretch:normal;font-size:7.40833px;font-family:'Sans Forgetica';-inkscape-font-specification:'Sans Forgetica';text-align:center;text-anchor:middle;fill:#4169e1;fill-opacity:1;stroke-width:0.264583"
         id="path920" />
      <path
         d="m 92.629114,39.365659 h 0.918633 L 93.39958,38.409985 c 0.192617,-0.392642 0.511175,-0.66675 0.948266,-0.66675 0.40005,0 0.770467,0.31115 0.837142,0.763058 l 0.340783,2.459565 h 0.911224 l -0.348191,-2.518832 c -0.155575,-1.096433 -0.66675,-1.585382 -1.577974,-1.585382 -0.629708,0 -1.044575,0.392641 -1.207558,0.666749 l -0.09631,-0.570441 h -0.918633 z"
         style="font-style:normal;font-variant:normal;font-weight:normal;font-stretch:normal;font-size:7.40833px;font-family:'Sans Forgetica';-inkscape-font-specification:'Sans Forgetica';text-align:center;text-anchor:middle;fill:#4169e1;fill-opacity:1;stroke-width:0.264583"
         id="path922" />
      <path
         d="m 99.207698,41.069575 -0.05927,-0.763058 c -0.592667,-0.06667 -1.1557,-0.592666 -1.266825,-1.370541 -0.118533,-0.814916 0.318559,-1.348316 0.9779,-1.348316 0.570441,0 0.977899,0.3556 1.170517,0.674158 l 0.32597,2.296582 c 0.0444,0.259292 0.25188,0.4445 0.36301,0.525992 l 0.72601,-0.318558 c -0.11853,-0.1778 -0.20743,-0.474134 -0.25929,-0.837142 l -0.67416,-4.793189 -0.903816,0.05186 0.31115,2.133599 c -0.192616,-0.207433 -0.570441,-0.459316 -1.185333,-0.459316 -1.155699,0 -1.918757,0.955674 -1.748366,2.178049 0.170392,1.200149 1.029758,2.029882 2.222499,2.029882 z"
         style="font-style:normal;font-variant:normal;font-weight:normal;font-stretch:normal;font-size:7.40833px;font-family:'Sans Forgetica';-inkscape-font-specification:'Sans Forgetica';text-align:center;text-anchor:middle;fill:#4169e1;fill-opacity:1;stroke-width:0.264583"
         id="path924" />
      <path
         d="m 104.1935,41.054758 -0.0593,-0.748241 c -0.63712,-0.08149 -1.17792,-0.688975 -1.28164,-1.407583 -0.11113,-0.777874 0.32597,-1.303866 0.99271,-1.303866 0.57045,0 0.98531,0.348192 1.17052,0.66675 l 0.31856,2.252132 c 0.14817,0.407458 0.58526,0.540808 0.85196,0.540808 0.41486,0 0.66675,-0.1778 0.75565,-0.377824 l -0.28152,-0.451909 c -0.0222,0.04445 -0.0815,0.05927 -0.14817,0.05927 -0.21484,0 -0.31855,-0.207433 -0.37041,-0.540808 l -0.40005,-2.785532 h -0.889 l 0.0667,0.481541 c -0.15557,-0.22225 -0.60007,-0.577849 -1.20756,-0.577849 -1.14829,0 -1.91875,0.911224 -1.74836,2.12619 0.15557,1.126067 1.11866,2.037291 2.22991,2.066924 z"
         style="font-style:normal;font-variant:normal;font-weight:normal;font-stretch:normal;font-size:7.40833px;font-family:'Sans Forgetica';-inkscape-font-specification:'Sans Forgetica';text-align:center;text-anchor:middle;fill:#4169e1;fill-opacity:1;stroke-width:0.264583"
         id="path926" />
      <path
         d="m 63.092155,44.655206 0.05927,0.763058 c 0.474133,0.09631 0.84455,0.459317 0.911225,0.963083 l -0.75565,-0.02963 0.09631,0.696383 1.548341,-0.02222 c 0.02223,-0.103717 0.02963,-0.340783 0.0074,-0.540808 -0.125942,-0.889 -0.748241,-1.711324 -1.866899,-1.829858 z m -2.015066,2.178049 c 0.170392,1.229783 1.111249,2.015066 2.407707,2.015066 0.770467,0 1.370541,-0.192616 1.666874,-0.451908 L 64.870154,47.70003 c -0.2667,0.237067 -0.777875,0.3556 -1.340908,0.3556 -0.674158,0 -1.340908,-0.377825 -1.459441,-1.037166 l -0.274108,-2.096558 c -0.57785,0.370417 -0.837141,1.089025 -0.718608,1.911349 z"
         style="font-style:normal;font-variant:normal;font-weight:normal;font-stretch:normal;font-size:7.40833px;font-family:'Sans Forgetica';-inkscape-font-specification:'Sans Forgetica';text-align:center;text-anchor:middle;fill:#4169e1;fill-opacity:1;stroke-width:0.264583"
         id="path928" />
      <path
         d="m 72.834091,48.752013 1.000125,-0.02222 c -0.01482,-0.0074 -0.05186,-0.05186 -0.05927,-0.118533 l -0.763058,-5.400673 c -0.0074,-0.05186 -0.01482,-0.07408 0,-0.09631 l -0.992716,0.02222 -1.259416,3.244848 h 1.037166 l 0.496358,-1.503891 0.540808,3.793065 c 0.0074,0.06667 0.02223,0.07408 0,0.08149 z m -4.444998,0 1.000125,-0.02222 c -0.01482,-0.0074 -0.05186,-0.05186 -0.05927,-0.118533 l -0.5334,-3.733799 0.903817,1.503891 h 1.059391 l -2.148416,-3.244848 -1.051983,0.01482 c 0.02963,0.02223 0.05927,0.06668 0.06668,0.118534 l 0.763058,5.400672 c 0.0074,0.06667 0.02963,0.07408 0,0.08149 z"
         style="font-style:normal;font-variant:normal;font-weight:normal;font-stretch:normal;font-size:7.40833px;font-family:'Sans Forgetica';-inkscape-font-specification:'Sans Forgetica';text-align:center;text-anchor:middle;fill:#4169e1;fill-opacity:1;stroke-width:0.264583"
         id="path930" />
      <path
         d="m 76.664193,48.833505 -0.05927,-0.748242 c -0.637116,-0.08149 -1.177924,-0.688974 -1.281641,-1.407582 -0.111125,-0.777875 0.325967,-1.303867 0.992716,-1.303867 0.570442,0 0.985308,0.348192 1.170517,0.66675 l 0.318558,2.252132 c 0.148166,0.407459 0.585258,0.540809 0.851958,0.540809 0.414866,0 0.666749,-0.1778 0.755649,-0.377825 l -0.281516,-0.451908 c -0.02223,0.04445 -0.08149,0.05927 -0.148167,0.05927 -0.214841,0 -0.318558,-0.207433 -0.370416,-0.540808 l -0.40005,-2.785532 h -0.889 l 0.06668,0.481542 c -0.155575,-0.22225 -0.600074,-0.57785 -1.207558,-0.57785 -1.148291,0 -1.918757,0.911224 -1.748365,2.12619 0.155575,1.126067 1.118657,2.037291 2.229907,2.066925 z"
         style="font-style:normal;font-variant:normal;font-weight:normal;font-stretch:normal;font-size:7.40833px;font-family:'Sans Forgetica';-inkscape-font-specification:'Sans Forgetica';text-align:center;text-anchor:middle;fill:#4169e1;fill-opacity:1;stroke-width:0.264583"
         id="path932" />
      <path
         d="m 79.909039,47.144405 h 0.911225 l -0.155575,-1.059391 c 0.118533,-0.385233 0.348191,-0.637116 0.733425,-0.637116 0.222249,0 0.370416,0.111125 0.459316,0.214841 l 0.140758,-0.896408 c -0.13335,-0.08149 -0.303741,-0.125941 -0.466724,-0.125941 -0.548217,0 -0.829733,0.251883 -0.970492,0.563033 l -0.08149,-0.466725 h -0.911225 z"
         style="font-style:normal;font-variant:normal;font-weight:normal;font-stretch:normal;font-size:7.40833px;font-family:'Sans Forgetica';-inkscape-font-specification:'Sans Forgetica';text-align:center;text-anchor:middle;fill:#4169e1;fill-opacity:1;stroke-width:0.264583"
         id="path934" />
      <path
         d="m 83.279824,48.744605 h 0.918633 l -0.200025,-1.407583 0.392641,-0.48895 0.244475,0.296333 h 1.089025 l -0.770466,-0.955674 1.192741,-1.452033 h -1.081617 l -1.214966,1.459441 -0.481541,-3.378198 -0.896408,0.148166 z"
         style="font-style:normal;font-variant:normal;font-weight:normal;font-stretch:normal;font-size:7.40833px;font-family:'Sans Forgetica';-inkscape-font-specification:'Sans Forgetica';text-align:center;text-anchor:middle;fill:#4169e1;fill-opacity:1;stroke-width:0.264583"
         id="path936" />
      <path
         d="m 88.687892,44.655206 0.05927,0.763058 c 0.474133,0.09631 0.844549,0.459317 0.911224,0.963083 l -0.755649,-0.02963 0.09631,0.696383 1.548341,-0.02222 c 0.02223,-0.103717 0.02963,-0.340783 0.0074,-0.540808 -0.125941,-0.889 -0.748241,-1.711324 -1.866899,-1.829858 z m -2.015066,2.178049 c 0.170392,1.229783 1.11125,2.015066 2.407708,2.015066 0.770466,0 1.370541,-0.192616 1.666874,-0.451908 L 90.465891,47.70003 c -0.266699,0.237067 -0.777874,0.3556 -1.340907,0.3556 -0.674158,0 -1.340908,-0.377825 -1.459441,-1.037166 l -0.274109,-2.096558 c -0.577849,0.370417 -0.837141,1.089025 -0.718608,1.911349 z"
         style="font-style:normal;font-variant:normal;font-weight:normal;font-stretch:normal;font-size:7.40833px;font-family:'Sans Forgetica';-inkscape-font-specification:'Sans Forgetica';text-align:center;text-anchor:middle;fill:#4169e1;fill-opacity:1;stroke-width:0.264583"
         id="path938" />
      <path
         d="m 91.006688,45.507164 h 2.57069 l -0.111125,-0.770466 h -1.022349 l -0.170392,-1.222374 -0.911224,0.05186 0.162983,1.170516 h -0.629708 z m 2.34844,3.341157 c 0.4445,0 0.75565,-0.162983 0.911225,-0.348191 L 93.97002,47.825972 c -0.111125,0.125941 -0.274108,0.185208 -0.503767,0.185208 -0.318558,0 -0.592666,-0.237067 -0.651933,-0.637116 l -0.02963,-0.229659 h -0.918633 l 0.03704,0.288925 c 0.148166,1.007533 0.659341,1.414991 1.452032,1.414991 z"
         style="font-style:normal;font-variant:normal;font-weight:normal;font-stretch:normal;font-size:7.40833px;font-family:'Sans Forgetica';-inkscape-font-specification:'Sans Forgetica';text-align:center;text-anchor:middle;fill:#4169e1;fill-opacity:1;stroke-width:0.264583"
         id="path940" />
      <path
         d="m 94.836793,43.944007 c 0.363008,0 0.5334,-0.288925 0.48895,-0.570442 -0.02963,-0.244475 -0.244475,-0.474133 -0.540808,-0.474133 -0.3556,0 -0.548217,0.288925 -0.511175,0.57785 0.03704,0.237067 0.237066,0.466725 0.563033,0.466725 z m 0.244475,4.800598 h 0.918633 l -0.563033,-4.030132 -0.911225,0.05927 z"
         style="font-style:normal;font-variant:normal;font-weight:normal;font-stretch:normal;font-size:7.40833px;font-family:'Sans Forgetica';-inkscape-font-specification:'Sans Forgetica';text-align:center;text-anchor:middle;fill:#4169e1;fill-opacity:1;stroke-width:0.264583"
         id="path942" />
      <path
         d="m 96.785174,47.144405 h 0.918633 L 97.55564,46.188731 c 0.192617,-0.392642 0.511175,-0.66675 0.948267,-0.66675 0.40005,0 0.770466,0.31115 0.837141,0.763058 l 0.340783,2.459566 h 0.911229 l -0.3482,-2.518833 c -0.15557,-1.096432 -0.666745,-1.585382 -1.57797,-1.585382 -0.629708,0 -1.044575,0.392641 -1.207558,0.666749 l -0.09631,-0.570441 h -0.918633 z"
         style="font-style:normal;font-variant:normal;font-weight:normal;font-stretch:normal;font-size:7.40833px;font-family:'Sans Forgetica';-inkscape-font-specification:'Sans Forgetica';text-align:center;text-anchor:middle;fill:#4169e1;fill-opacity:1;stroke-width:0.264583"
         id="path944" />
      <path
         d="m 103.60083,47.366655 c 0.8001,-0.13335 1.21496,-0.681566 1.11865,-1.385358 -0.0296,-0.200024 -0.12594,-0.414866 -0.25188,-0.533399 0.0815,-0.103717 0.24447,-0.148167 0.45932,-0.148167 l -0.0444,-0.659341 c -0.41487,0 -0.66675,0.1778 -0.8001,0.3556 -0.22225,-0.170392 -0.47414,-0.281517 -0.81492,-0.333375 l 0.0593,0.755649 c 0.29633,0.103717 0.52599,0.3556 0.57044,0.66675 0.037,0.259292 -0.0741,0.451908 -0.34819,0.555625 z m -2.15583,0.31115 c 0.0815,0.555625 0.889,0.955675 1.8669,0.896408 0.51858,-0.02963 0.86678,0.05927 1.0668,0.185208 l 1.04457,-0.03704 c -0.23706,-0.555625 -0.82973,-0.896408 -1.83726,-0.851958 -0.80751,0.02963 -1.31868,-0.125942 -1.36313,-0.437092 -0.007,-0.09631 0.0296,-0.200025 0.0667,-0.22225 0.13335,0.07408 0.30374,0.125942 0.51118,0.162984 l -0.0593,-0.748242 c -0.29633,-0.111125 -0.52599,-0.348191 -0.57044,-0.644525 -0.037,-0.266699 0.0963,-0.466724 0.3556,-0.570441 l -0.0593,-0.726016 c -0.72602,0.140758 -1.23719,0.681566 -1.13347,1.400174 0.0593,0.437092 0.32596,0.703791 0.49635,0.829733 -0.16298,0.06668 -0.43709,0.363008 -0.38523,0.763058 z m 0.17039,1.444624 c 0.11113,0.807508 0.85937,1.318683 2.14101,1.318683 0.88159,0 1.5113,-0.296333 1.70392,-0.814916 l -1.74837,0.02222 c -0.80751,0 -1.19274,-0.281517 -1.25201,-0.518583 l -0.83714,-0.244475 c -0.0148,0.06668 -0.0222,0.148166 -0.007,0.237066 z"
         style="font-style:normal;font-variant:normal;font-weight:normal;font-stretch:normal;font-size:7.40833px;font-family:'Sans Forgetica';-inkscape-font-specification:'Sans Forgetica';text-align:center;text-anchor:middle;fill:#4169e1;fill-opacity:1;stroke-width:0.264583"
         id="path946" />
    </g>
  </g>
</svg>
